# xmcd
#
# Track frame offsets:
#	150
#	11812
#	30585
#	42150
#	54252
#	65555
#	76712
#	88575
#	101350
#	113900
#	125337
#	136682
#
# Disc length: 2035 seconds
#
# Revision: 1
# Processed by: cddbd v1.5.1PL0 Copyright (c) Steve Scherf et al.
# Submitted via: audiograbber 1.83.01
#
DISCID=8b07f10c
DTITLE=Floyd CRAMER - Forever Flyod Cramer
DYEAR=1989
DGENRE=Country
TTITLE0=Forever
TTITLE1=Time of my life
TTITLE2=A funny shade of blue
TTITLE3=Lovin' feeling
TTITLE4=Kisses and tears
TTITLE5=The homecoming
TTITLE6=Good moves
TTITLE7=Tonight's the night for love
TTITLE8=Cross country
TTITLE9=Our last goodbye
TTITLE10=Secure for the night
TTITLE11=Last call for love
EXTD=
EXTT0=
EXTT1=
EXTT2=
EXTT3=
EXTT4=
EXTT5=
EXTT6=
EXTT7=
EXTT8=
EXTT9=
EXTT10=
EXTT11=
PLAYORDER=
